<svg width="46" height="119" viewBox="0 0 46 119" fill="none" xmlns="http://www.w3.org/2000/svg">
<path fill-rule="evenodd" clip-rule="evenodd" d="M13.5592 10.3208C13.9912 6.41782 14.9632 2.48082 15.7172 1.57082C17.6172 -0.717179 20.1322 -0.495179 22.4802 2.16782C26.2472 6.44082 28.3602 12.7758 33.9022 36.4178C36.4212 47.1618 38.6872 64.2458 38.7832 73.2078C38.8292 77.5198 39.4012 79.7508 41.0222 81.9438C44.3252 86.4108 47.2912 107.872 44.9322 110.231C44.3342 110.829 43.8452 112.097 43.8452 113.05C43.8452 114.002 42.5502 115.704 40.9672 116.831C38.3772 118.676 36.6562 118.875 23.7672 118.822C8.76723 118.76 6.19723 118.174 2.37023 113.945C0.614232 112.005 0.397251 110.278 0.377251 98.0928C0.355251 84.5278 0.381243 84.3708 3.60024 78.5268C5.38524 75.2868 6.84524 71.5448 6.84524 70.2108C6.84524 68.8778 7.34323 66.8558 7.95223 65.7178C8.56123 64.5798 9.45923 57.2968 9.94823 49.5338C10.7642 36.5788 11.3212 30.5278 13.5592 10.3208ZM27.3752 78.6658C29.5912 79.6298 32.3373 81.0928 33.4763 81.9178C36.1623 83.8628 38.8452 89.1138 38.8452 92.4258C38.8452 93.8588 39.3312 96.9618 39.9252 99.3208C41.2452 104.564 39.7153 111.382 36.8773 112.901C34.3593 114.248 29.8772 114.186 24.4282 112.729C21.1332 111.848 19.0572 111.824 16.4042 112.638C11.6702 114.091 7.02424 112.422 6.09624 108.934C5.72824 107.55 5.44124 102.143 5.45724 96.9178C5.50324 82.3038 8.19824 78.3488 18.7982 77.3448C21.7682 77.0628 24.7422 77.5208 27.3752 78.6658ZM23.8232 18.4178C23.4012 17.3178 22.2382 14.1678 21.2372 11.4178L19.4182 6.41782L18.1372 19.9178C17.4322 27.3428 16.4032 35.3368 15.8502 37.6818C15.2972 40.0278 14.8182 45.8778 14.7852 50.6818C14.7262 59.3348 13.8032 66.7898 12.3722 70.1678C11.7062 71.7398 12.3552 71.9178 18.7702 71.9178C22.8032 71.9178 27.4472 72.5598 29.4432 73.3948L32.9772 74.8708L32.5172 65.1448C32.0212 54.6618 30.2632 41.6478 28.9052 38.4178C28.4432 37.3178 27.2832 32.8178 26.3272 28.4178C25.3712 24.0178 24.2442 19.5178 23.8232 18.4178Z" fill="#858E9B"/>
</svg>
