<svg width="34" height="119" viewBox="0 0 34 119" fill="none" xmlns="http://www.w3.org/2000/svg">
<path fill-rule="evenodd" clip-rule="evenodd" d="M5.56948 16.381C5.04748 6.168 5.16946 5.047 7.07046 2.631C8.20846 1.184 9.75947 0 10.5165 0C12.3765 0 16.6705 5.796 17.5545 9.5C17.9485 11.15 18.6065 12.95 19.0165 13.5C19.4275 14.05 20.0665 16.075 20.4375 18C20.8075 19.925 21.4865 22.4 21.9455 23.5C23.9585 28.322 25.9945 40.407 25.9945 47.528C25.9945 56.091 27.1235 64.28 31.5765 88C33.8185 99.944 34.4295 110.319 33.0435 112.909C31.3065 116.155 26.7555 117.684 16.4945 118.469C8.08047 119.113 7.26647 119.004 3.99447 116.791L0.494469 114.423L0.218468 98.052C-0.0345323 83.003 0.115441 81.35 2.06844 77.59C3.94944 73.97 4.30546 70.857 5.16646 50.5C5.70046 37.85 5.88248 22.496 5.56948 16.381ZM22.2825 77.391C23.8115 78.808 25.1115 81.355 25.4735 83.641C25.8095 85.764 26.3565 88.625 26.6905 90C27.0235 91.375 27.3415 96.775 27.3955 102L27.4945 111.5L20.4765 112.047C16.6175 112.349 12.8815 112.952 12.1765 113.388C11.4525 113.835 9.39048 113.467 7.44448 112.543L3.99447 110.906V98.562C3.99447 88.648 4.36347 85.394 5.86947 82.03C9.01947 74.996 17.2025 72.683 22.2825 77.391ZM21.0545 51C20.1415 37.323 19.2335 32.757 14.2605 16.858C12.7395 11.996 11.1935 8.013 10.8255 8.009C10.4565 8.004 10.6245 9.688 11.1975 11.75C11.8805 14.212 11.9535 20.308 11.4085 29.5C10.9515 37.2 10.5595 49.461 10.5365 56.747L10.4945 69.993L15.1625 69.997C17.7305 69.999 20.6045 70.297 21.5495 70.66C23.0365 71.23 23.1795 70.859 22.6115 67.91C22.2505 66.034 21.5495 58.425 21.0545 51Z" fill="#858E9B"/>
</svg>
