<svg width="40" height="115" viewBox="0 0 40 115" fill="none" xmlns="http://www.w3.org/2000/svg">
<path fill-rule="evenodd" clip-rule="evenodd" d="M7.22614 16.5C6.62614 7.483 6.76213 6.181 8.60413 3.25C9.77913 1.38 11.4812 0 12.6102 0C16.0932 0 20.2521 7.343 22.2211 16.967C22.6111 18.874 23.3011 21.124 23.7551 21.967C24.2081 22.81 25.2131 25.075 25.9871 27C26.7611 28.925 27.9471 31.844 28.6221 33.486C29.2961 35.128 30.2491 39.403 30.7391 42.986C31.2291 46.569 31.8782 51.3 32.1812 53.5C33.7592 64.942 35.9852 77.054 37.3262 81.5C38.1562 84.25 39.0582 89.875 39.3312 94L39.8271 101.5L35.0012 106.614C28.5412 113.462 24.7011 115.333 18.2101 114.794C12.0871 114.287 4.56016 109.61 2.04816 104.753C-0.596843 99.637 1.24014 83.965 5.18414 78C7.19214 74.963 8.49914 35.618 7.22614 16.5ZM27.4261 75.648C29.3801 76.611 30.6761 78.003 30.6761 79.138C30.6761 80.177 31.1082 81.809 31.6362 82.764C32.1632 83.719 33.0302 86.525 33.5612 89C34.0932 91.475 34.8261 94.463 35.1901 95.641C35.7061 97.31 34.8772 98.741 31.4252 102.141C28.9892 104.538 26.1591 107.165 25.1351 107.977C22.0771 110.405 16.6511 109.787 11.6661 106.443L7.17615 103.432L6.88416 96.305C6.64516 90.472 7.08612 87.909 9.31012 82.191C11.8581 75.641 12.2512 75.168 15.6022 74.613C21.2142 73.685 23.9261 73.922 27.4261 75.648ZM15.6752 13.5C15.2772 12.95 14.6522 11.244 14.2852 9.709C13.0702 4.63 11.3711 7.806 12.0491 13.887C14.1081 32.34 14.3472 37.213 13.5502 44.5C13.0682 48.9 12.3972 55.071 12.0582 58.214C11.7182 61.356 11.7412 65.124 12.1082 66.586C12.7432 69.115 13.0052 69.214 17.4772 68.621C20.0632 68.278 23.6702 68.425 25.4932 68.948L28.8071 69.898L28.1862 64.199C27.8452 61.065 27.1701 56.475 26.6871 54C26.2031 51.525 25.5571 46.976 25.2501 43.891C24.7041 38.402 23.6182 35.025 19.5192 26.062C18.4032 23.622 17.2442 20.022 16.9442 18.062C16.6442 16.103 16.0732 14.05 15.6752 13.5Z" fill="#858E9B"/>
</svg>
