<svg width="50" height="105" viewBox="0 0 50 105" fill="none" xmlns="http://www.w3.org/2000/svg">
<path fill-rule="evenodd" clip-rule="evenodd" d="M30.3835 0.917999C28.8895 2.361 22.1095 2.576 20.7565 1.223C18.7565 -0.777 14.5655 -0.227 12.9245 2.25C11.7145 4.076 11.4335 8.736 11.4335 27C11.4335 27.9045 11.4339 28.7732 11.4342 29.6083V29.6145C11.4392 41.3318 11.4413 46.4367 10.3896 51.3145C9.57759 55.0803 8.13739 58.7107 5.5853 65.1439C5.34965 65.7379 5.10451 66.3559 4.84951 67C-1.70549 83.555 -1.38347 93.919 5.91153 101.214C10.1625 105.464 12.5505 105.853 20.1835 103.537C24.3195 102.282 25.5475 102.282 29.6835 103.537C39.1425 106.407 45.9875 104.506 48.5895 98.286C50.6155 93.444 50.0035 77.348 47.5765 71.628C45.6775 67.152 45.2875 50.829 46.9735 46.393C48.4425 42.532 48.4505 26.139 46.9865 21.437C45.7895 17.59 43.9725 13.028 41.6365 8C40.1075 4.707 34.9975 0 32.9535 0C32.0625 0 30.9055 0.412999 30.3835 0.917999ZM43.8925 79.706C42.2565 72.395 42.0245 72.109 36.8605 71.036C31.7945 69.983 12.2865 70.762 9.7275 72.119C5.8275 74.187 4.57752 88.992 7.79452 95.016C10.0475 99.233 13.0395 99.85 20.0775 97.548C24.5215 96.094 25.4225 96.087 29.4975 97.47C35.2175 99.412 40.3665 99.425 42.2905 97.501C44.5145 95.276 45.3355 86.157 43.8925 79.706ZM35.5555 8.762C37.4655 11.403 39.3215 16.023 41.8985 24.55C43.1965 28.848 42.9005 35.955 40.8595 49.5C40.1965 53.9 39.6985 59.46 39.7545 61.856C39.8485 65.942 39.7175 66.163 37.6445 65.411C34.8725 64.406 19.5805 64.466 15.0235 65.5C11.9415 66.2 11.6875 66.093 12.3735 64.387C13.9695 60.423 16.7285 49.29 17.3025 44.5C17.6325 41.75 17.4665 34.325 16.9335 28C16.1085 18.206 16.4515 6.185 17.5255 7.258C18.4335 8.167 21.2535 20.673 22.5395 29.5C25.0345 46.624 26.4885 52.315 28.2205 51.738C29.1675 51.422 30.8965 47.147 33.8065 37.929C35.2595 33.325 35.2675 14.256 33.8175 10.098C32.3565 5.907 33.0855 5.347 35.5555 8.762ZM29.9335 25.866C29.9335 19.744 29.4575 16.679 27.3505 9.25C27.1555 8.563 26.5325 8 25.9645 8C24.6815 8 24.6255 12.74 25.8635 16.601C26.3745 18.195 27.0855 22.538 27.4425 26.25C27.8005 29.963 28.5065 33 29.0135 33C29.5195 33 29.9335 29.79 29.9335 25.866Z" fill="#858E9B"/>
</svg>
