<svg width="51" height="98" viewBox="0 0 51 98" fill="none" xmlns="http://www.w3.org/2000/svg">
<path fill-rule="evenodd" clip-rule="evenodd" d="M2.9566 2.12555C0.992604 4.92855 0.964611 11.1525 2.88861 17.4935C3.78461 20.4465 4.11536 31.1871 4.38861 32.5936C4.66187 34 5.5686 43 5.5686 43V55.4526C5.5686 55.4526 0.899597 69.9335 0.899597 79.7245L1.66162 89.5L5.1106 93.9746C9.8206 98.3676 12.1926 98.7696 18.5006 96.2456C21.8776 94.8946 23.2326 94.8016 25.8416 95.7456C27.6016 96.3816 29.7856 96.9025 30.6956 96.9025C33.7376 96.9025 44.8656 91.1465 47.7806 88.0655L49.6619 83.5L50.1736 74.2115C49.9056 68.2665 49.1086 62.0525 48.4026 60.4025C47.6966 58.7525 46.5066 55.9845 45.7586 54.2515C45.0116 52.5185 44.3996 49.5605 44.3996 49.5605C44.3996 49.5605 42.3006 43.4045 41.9726 39.1455C41.1346 28.2595 39.6466 22.3196 36.0326 15.4346C32.7936 9.26455 32.6716 9.06755 29.4876 4.90255C27.7496 2.62855 23.8889 3.108 16.6619 3C12.2929 2.934 10.8366 1.66855 9.79462 1.06355C6.85562 -0.642451 4.6556 -0.301451 2.9566 2.12555ZM44.1606 65.1445L39.0306 64.2486C34.0786 63.3846 14.1926 63.5246 9.71057 64.4556C7.94757 64.8216 7.3996 65.8355 6.8996 69.6565C6.5586 72.2665 5.85163 75.4446 5.33063 76.7186C3.88763 80.2426 6.79459 89.2405 9.91559 90.9105C11.9476 91.9985 13.0716 92.0006 16.3386 90.9226C18.7706 90.1206 22.5876 89.8236 26.2276 90.1536C30.8116 90.5686 33.1476 90.2476 36.5276 88.7346C45.2946 84.8116 46.4806 82.0706 44.7806 69.6626L44.1606 65.1445ZM8.51257 9.40255C8.84857 9.95255 9.4366 11.7095 9.8186 13.3065C10.2016 14.9025 11.8086 18.0905 13.3906 20.3885C14.9716 22.6875 17.2196 27.4565 18.3846 30.9855C19.5496 34.5145 21.1546 38.8206 21.9516 40.5536C22.7476 42.2866 23.3996 44.1306 23.3996 44.6496C23.3996 46.3436 26.5216 51.9025 27.4726 51.9025C28.8516 51.9025 28.5936 42.9736 26.9906 35.2176C26.2156 31.4696 25.6376 24.2215 25.7056 19.1125C25.8266 10.0635 25.8756 9.88155 27.5696 12.1125C32.7186 18.8915 35.6946 28.2786 36.8556 41.4025C37.3636 47.1415 39.2596 54.0966 40.7146 55.5506C43.1246 57.9606 40.6866 58.3886 26.1506 58.1066L10.8996 57.8095L10.7316 49.6066C10.3186 29.4686 9.69162 20.1395 8.51862 16.6695C7.29162 13.0425 7.28657 7.39455 8.51257 9.40255ZM20.3906 16.9025C20.3916 14.9775 19.5006 11.9405 18.4106 10.1525C17.3206 8.36455 16.1976 6.90255 15.9146 6.90255C15.6316 6.90255 15.4156 8.59055 15.4356 10.6525C15.4596 13.1165 16.3146 15.4315 17.9306 17.4025L20.3896 20.4025L20.3906 16.9025Z" fill="#858E9B"/>
</svg>
