<svg width="42" height="92" viewBox="0 0 42 92" fill="none" xmlns="http://www.w3.org/2000/svg">
<path fill-rule="evenodd" clip-rule="evenodd" d="M0.399086 12.839C-0.652914 5.824 0.441038 2.355 4.11204 1.076C5.81004 0.484 7.25606 0 7.32706 0C7.93406 0 12.652 3.739 13.578 4.954C15.313 7.23 27.9001 32.434 27.9001 33.631C27.9001 36.791 34.6861 54.309 37.7271 59C40.7101 63.601 41.3611 65.604 41.7101 71.253C42.3841 82.184 41.3191 86.774 37.5801 89.053C33.9911 91.242 28.1061 91.565 23.3251 89.837C20.6781 88.88 19.4861 88.968 16.6031 90.337C11.3381 92.835 7.44405 92.458 3.66605 89.084C0.409054 86.176 0.399045 86.14 0.0700455 75.334C-0.172955 67.34 0.196042 62.796 1.47904 58C3.80204 49.318 3.40909 32.916 0.399086 12.839ZM29.4001 58.95C30.5001 59.403 32.5251 61.287 33.9001 63.137C36.0931 66.087 36.3981 67.505 36.3861 74.681C36.3781 79.18 36.063 83.171 35.685 83.548C34.058 85.175 26.1541 85.183 23.0161 83.56C19.9551 81.977 19.6431 81.996 16.4831 83.949C14.6571 85.077 11.8091 86 10.1531 86C7.70405 86 6.88806 85.394 5.77506 82.75C3.76006 77.962 3.96809 66.687 6.11509 64.315C9.46709 60.61 24.8341 57.07 29.4001 58.95ZM14.005 17.333C11.813 12.894 9.25206 8.495 8.31406 7.557C6.16206 5.405 4.64008 7.241 5.43308 11.032C6.39608 15.633 8.12405 33.339 8.58305 43.316C8.89705 50.125 8.66505 53.578 7.82505 54.59C6.05105 56.728 7.10404 57.126 10.237 55.5C11.747 54.717 16.3391 53.772 20.4411 53.4C28.0101 52.714 28.611 52.332 26.992 49.236C26.493 48.281 24.642 43 22.88 37.5C21.117 32 19.2951 27.028 18.8321 26.452C18.3691 25.875 16.197 21.772 14.005 17.333Z" fill="#858E9B"/>
</svg>
