<svg width="46" height="119" viewBox="0 0 46 119" fill="none" xmlns="http://www.w3.org/2000/svg">
<path fill-rule="evenodd" clip-rule="evenodd" d="M32.2218 10.3208C31.7898 6.41782 30.8178 2.48082 30.0638 1.57082C28.1638 -0.717179 25.6488 -0.495179 23.3008 2.16782C19.5338 6.44082 17.4208 12.7758 11.8788 36.4178C9.35976 47.1618 7.09378 64.2458 6.99778 73.2078C6.95178 77.5198 6.37977 79.7508 4.75877 81.9438C1.45577 86.4108 -1.51024 107.872 0.848762 110.231C1.44676 110.829 1.93577 112.097 1.93577 113.05C1.93577 114.002 3.23076 115.704 4.81376 116.831C7.40376 118.676 9.12477 118.875 22.0138 118.822C37.0138 118.76 39.5838 118.174 43.4108 113.945C45.1668 112.005 45.3838 110.278 45.4038 98.0928C45.4258 84.5278 45.3998 84.3708 42.1808 78.5268C40.3958 75.2868 38.9358 71.5448 38.9358 70.2108C38.9358 68.8778 38.4378 66.8558 37.8288 65.7178C37.2198 64.5798 36.3218 57.2968 35.8328 49.5338C35.0168 36.5788 34.4598 30.5278 32.2218 10.3208ZM18.4058 78.6658C16.1898 79.6298 13.4438 81.0928 12.3048 81.9178C9.61876 83.8628 6.93577 89.1138 6.93577 92.4258C6.93577 93.8588 6.44978 96.9618 5.85578 99.3208C4.53578 104.564 6.06575 111.382 8.90375 112.901C11.4218 114.248 15.9038 114.186 21.3528 112.729C24.6478 111.848 26.7238 111.824 29.3768 112.638C34.1108 114.091 38.7568 112.422 39.6848 108.934C40.0528 107.55 40.3398 102.143 40.3238 96.9178C40.2778 82.3038 37.5828 78.3488 26.9828 77.3448C24.0128 77.0628 21.0388 77.5208 18.4058 78.6658ZM21.9578 18.4178C22.3798 17.3178 23.5428 14.1678 24.5438 11.4178L26.3628 6.41782L27.6438 19.9178C28.3488 27.3428 29.3778 35.3368 29.9308 37.6818C30.4838 40.0278 30.9628 45.8778 30.9958 50.6818C31.0548 59.3348 31.9778 66.7898 33.4088 70.1678C34.0748 71.7398 33.4258 71.9178 27.0108 71.9178C22.9778 71.9178 18.3338 72.5598 16.3378 73.3948L12.8038 74.8708L13.2638 65.1448C13.7598 54.6618 15.5178 41.6478 16.8758 38.4178C17.3378 37.3178 18.4978 32.8178 19.4538 28.4178C20.4098 24.0178 21.5368 19.5178 21.9578 18.4178Z" fill="#858E9B"/>
</svg>
