<svg width="42" height="118" viewBox="0 0 42 118" fill="none" xmlns="http://www.w3.org/2000/svg">
<path fill-rule="evenodd" clip-rule="evenodd" d="M36.5309 24.2735C37.1729 4.65749 37.1349 4.08649 35.0719 2.02349C32.7649 -0.283514 30.4379 -0.606515 27.6849 0.996485C25.6019 2.20849 19.0289 15.0515 16.4719 22.9055C15.4869 25.9305 14.3159 29.3055 13.8709 30.4055C12.5109 33.7615 10.8249 48.6265 10.0709 63.9055L9.35488 78.4055L4.93685 86.4055C1.03585 93.4685 0.514857 95.1505 0.485857 100.762C0.455857 106.819 0.618875 107.259 3.95387 110.052C9.06487 114.334 17.2268 117.905 21.9028 117.905C27.0988 117.905 33.7419 114.784 38.3469 110.178C41.9079 106.618 41.9539 106.466 41.9539 98.3035C41.9539 93.7565 41.4089 88.7685 40.7429 87.2205C40.0769 85.6725 39.2209 77.8805 38.8419 69.9055C38.4629 61.9305 37.6389 52.9305 37.0119 49.9055C36.2389 46.1755 36.0839 37.9275 36.5309 24.2735ZM27.2379 12.1065C25.4689 15.7925 23.3488 20.4165 22.5278 22.3835C18.8428 31.2025 15.9619 49.7275 15.9569 64.6365L15.9539 72.8675L20.2039 72.3045C22.5409 71.9955 26.3699 72.1815 28.7109 72.7195C32.8139 73.6605 32.9919 73.6005 33.6299 71.0605C33.9939 69.6115 33.6719 64.8215 32.9149 60.4155C32.1579 56.0105 31.2949 41.8305 30.9959 28.9055L30.4539 5.40549L27.2379 12.1065ZM13.0689 82.5975C13.9569 80.9085 15.5319 79.1935 16.5689 78.7865C19.3229 77.7045 27.4249 77.7535 30.3609 78.8705C31.9449 79.4725 33.1259 80.8805 33.5039 82.6205C33.8369 84.1525 34.4959 86.3055 34.9669 87.4055C37.2999 92.8435 38.6229 99.7495 37.6759 101.537C35.8379 105.007 31.4759 109.066 27.5159 110.991C21.2719 114.026 19.6729 113.715 10.2039 107.617C6.32887 105.121 5.95387 104.515 5.95387 100.739C5.95387 96.9445 7.21386 93.7315 13.0689 82.5975Z" fill="#858E9B"/>
</svg>
