<svg width="51" height="105" viewBox="0 0 51 105" fill="none" xmlns="http://www.w3.org/2000/svg">
<path fill-rule="evenodd" clip-rule="evenodd" d="M20.3975 0.917999C21.8915 2.361 28.6715 2.576 30.0245 1.223C32.0245 -0.777 36.2155 -0.227 37.8565 2.25C39.0665 4.076 39.3475 8.736 39.3475 27C39.3475 27.9045 39.3471 28.7732 39.3468 29.6083V29.6145C39.3418 41.3318 39.3397 46.4367 40.3914 51.3145C41.2034 55.0803 42.6436 58.7107 45.1957 65.1439C45.4314 65.7379 45.6765 66.3559 45.9315 67C52.4865 83.555 52.1645 93.919 44.8695 101.214C40.6185 105.464 38.2305 105.853 30.5975 103.537C26.4615 102.282 25.2335 102.282 21.0975 103.537C11.6385 106.407 4.7935 104.506 2.1915 98.286C0.165503 93.444 0.777504 77.348 3.2045 71.628C5.1035 67.152 5.49353 50.829 3.80753 46.393C2.33853 42.532 2.33053 26.139 3.79453 21.437C4.99153 17.59 6.80851 13.028 9.14451 8C10.6735 4.707 15.7835 0 17.8275 0C18.7185 0 19.8755 0.412999 20.3975 0.917999ZM6.88853 79.706C8.52453 72.395 8.75651 72.109 13.9205 71.036C18.9865 69.983 38.4945 70.762 41.0535 72.119C44.9535 74.187 46.2035 88.992 42.9865 95.016C40.7335 99.233 37.7415 99.85 30.7035 97.548C26.2595 96.094 25.3585 96.087 21.2835 97.47C15.5635 99.412 10.4145 99.425 8.49051 97.501C6.26651 95.276 5.44553 86.157 6.88853 79.706ZM15.2255 8.762C13.3155 11.403 11.4595 16.023 8.88248 24.55C7.58448 28.848 7.88048 35.955 9.92148 49.5C10.5845 53.9 11.0825 59.46 11.0265 61.856C10.9325 65.942 11.0635 66.163 13.1365 65.411C15.9085 64.406 31.2005 64.466 35.7575 65.5C38.8395 66.2 39.0935 66.093 38.4075 64.387C36.8115 60.423 34.0525 49.29 33.4785 44.5C33.1485 41.75 33.3145 34.325 33.8475 28C34.6725 18.206 34.3295 6.185 33.2555 7.258C32.3475 8.167 29.5275 20.673 28.2415 29.5C25.7465 46.624 24.2925 52.315 22.5605 51.738C21.6135 51.422 19.8845 47.147 16.9745 37.929C15.5215 33.325 15.5135 14.256 16.9635 10.098C18.4245 5.907 17.6955 5.347 15.2255 8.762ZM20.8475 25.866C20.8475 19.744 21.3235 16.679 23.4305 9.25C23.6255 8.563 24.2485 8 24.8165 8C26.0995 8 26.1555 12.74 24.9175 16.601C24.4065 18.195 23.6955 22.538 23.3385 26.25C22.9805 29.963 22.2745 33 21.7675 33C21.2615 33 20.8475 29.79 20.8475 25.866Z" fill="#858E9B"/>
</svg>
