<svg width="50" height="98" viewBox="0 0 50 98" fill="none" xmlns="http://www.w3.org/2000/svg">
<path fill-rule="evenodd" clip-rule="evenodd" d="M47.8244 2.12555C49.7884 4.92855 49.8164 11.1525 47.8924 17.4935C46.9964 20.4465 46.6656 31.1871 46.3924 32.5936C46.1191 34 45.2124 43 45.2124 43V55.4526C45.2124 55.4526 49.8814 69.9335 49.8814 79.7245L49.1194 89.5L45.6704 93.9746C40.9604 98.3676 38.5884 98.7696 32.2804 96.2456C28.9034 94.8946 27.5484 94.8016 24.9394 95.7456C23.1794 96.3816 20.9954 96.9025 20.0854 96.9025C17.0434 96.9025 5.91543 91.1465 3.00043 88.0655L1.11914 83.5L0.607422 74.2115C0.875422 68.2665 1.67242 62.0525 2.37842 60.4025C3.08442 58.7525 4.2744 55.9845 5.0224 54.2515C5.7694 52.5185 6.38141 49.5605 6.38141 49.5605C6.38141 49.5605 8.48041 43.4045 8.80841 39.1455C9.64641 28.2595 11.1344 22.3196 14.7484 15.4346C17.9874 9.26455 18.1094 9.06755 21.2934 4.90255C23.0314 2.62855 26.8921 3.108 34.1191 3C38.4881 2.934 39.9444 1.66855 40.9864 1.06355C43.9254 -0.642451 46.1254 -0.301451 47.8244 2.12555ZM6.62042 65.1445L11.7504 64.2486C16.7024 63.3846 36.5884 63.5246 41.0704 64.4556C42.8334 64.8216 43.3814 65.8355 43.8814 69.6565C44.2224 72.2665 44.9294 75.4446 45.4504 76.7186C46.8934 80.2426 43.9864 89.2405 40.8654 90.9105C38.8334 91.9985 37.7094 92.0006 34.4424 90.9226C32.0104 90.1206 28.1934 89.8236 24.5534 90.1536C19.9694 90.5686 17.6334 90.2476 14.2534 88.7346C5.48642 84.8116 4.30043 82.0706 6.00043 69.6626L6.62042 65.1445ZM42.2684 9.40255C41.9324 9.95255 41.3444 11.7095 40.9624 13.3065C40.5794 14.9025 38.9724 18.0905 37.3904 20.3885C35.8094 22.6875 33.5614 27.4565 32.3964 30.9855C31.2314 34.5145 29.6264 38.8206 28.8294 40.5536C28.0334 42.2866 27.3814 44.1306 27.3814 44.6496C27.3814 46.3436 24.2594 51.9025 23.3084 51.9025C21.9294 51.9025 22.1874 42.9736 23.7904 35.2176C24.5654 31.4696 25.1434 24.2215 25.0754 19.1125C24.9544 10.0635 24.9054 9.88155 23.2114 12.1125C18.0624 18.8915 15.0864 28.2786 13.9254 41.4025C13.4174 47.1415 11.5214 54.0966 10.0664 55.5506C7.65641 57.9606 10.0944 58.3886 24.6304 58.1066L39.8814 57.8095L40.0494 49.6066C40.4624 29.4686 41.0894 20.1395 42.2624 16.6695C43.4894 13.0425 43.4944 7.39455 42.2684 9.40255ZM30.3904 16.9025C30.3894 14.9775 31.2804 11.9405 32.3704 10.1525C33.4604 8.36455 34.5834 6.90255 34.8664 6.90255C35.1494 6.90255 35.3654 8.59055 35.3454 10.6525C35.3214 13.1165 34.4664 15.4315 32.8504 17.4025L30.3914 20.4025L30.3904 16.9025Z" fill="#858E9B"/>
</svg>
