<svg width="34" height="115" viewBox="0 0 34 115" fill="none" xmlns="http://www.w3.org/2000/svg">
<path fill-rule="evenodd" clip-rule="evenodd" d="M23.899 2.85782C20.929 2.50482 16.7 1.72782 14.5 1.13182C9.737 -0.159181 8.24599 -0.17318 5.20599 1.04782C1.28199 2.62182 0 7.66082 0 21.5008C0 32.7448 0.249998 34.5628 2.379 38.7828C4.602 43.1908 4.80201 45.0048 5.44501 66.4998C6.17701 90.9748 7.64699 101.731 11.235 108.862C14.822 115.991 20.198 116.374 22.505 109.664C23.284 107.396 24.06 97.1378 24.503 83.2288C24.901 70.7278 26.065 59.4568 26.065 59.4568C26.065 59.4568 27.191 55.2828 27.545 51.4568C27.898 47.6298 29.377 40.6748 30.83 35.9998C32.87 29.4408 33.476 25.4048 33.487 18.3268C33.504 6.38882 31.906 3.80982 23.899 2.85782ZM6.59201 7.14582C6.35801 7.89082 5.89201 13.6218 5.55701 19.8808C5.00801 30.1608 5.153 31.6858 7.065 35.6348C9.233 40.1118 9.687 40.3608 17.633 41.4298C22.244 42.0508 23.427 41.2068 24.557 36.4938C24.953 34.8468 25.604 33.0498 26.006 32.4998C27.475 30.4888 29.181 18.0298 28.522 14.1278C27.67 9.08982 26.794 8.41482 20 7.56382C16.975 7.18482 12.816 6.63082 10.759 6.33282C8.115 5.95082 6.89201 6.18882 6.59201 7.14582ZM12.651 91.9158C10.974 79.4768 9.78901 53.2058 10.699 48.6588C11.197 46.1718 11.594 45.9008 13.884 46.4798C15.323 46.8448 17.895 47.3768 19.599 47.6628C22.673 48.1788 22.69 48.2168 21.766 52.3418C20.874 56.3278 19.792 70.0418 18.382 95.2498C18.021 101.713 17.445 107 17.103 107C15.436 107 14.054 102.318 12.651 91.9158Z" fill="#858E9B"/>
</svg>
