<svg width="34" height="124" viewBox="0 0 34 124" fill="none" xmlns="http://www.w3.org/2000/svg">
<path fill-rule="evenodd" clip-rule="evenodd" d="M23.429 2.98484C22.368 2.97684 19.7 2.32084 17.5 1.52884C15.3 0.73584 11.207 0.0678397 8.40503 0.0438397C0.520029 -0.0241603 0 1.01284 0 16.8028C0 29.1188 0.192983 30.4338 3.05798 37.6448C5.70398 44.3068 6.17998 46.9668 6.59698 57.4208C6.86198 64.0638 7.02298 72.6498 6.95398 76.4998C6.88498 80.3498 6.77902 86.4248 6.71802 89.9998C6.51402 102.021 10.017 118.129 13.732 122.25C14.6 123.213 16.555 124 18.077 124C21.723 124 22.635 120.961 23.435 106.138C23.773 99.8898 24.488 93.9568 25.025 92.9538C25.561 91.9518 26.023 86.7138 26.051 81.3158C26.08 75.9168 26.552 68.3498 27.1 64.4998C27.649 60.6498 28.493 53.6748 28.976 48.9998C29.459 44.3248 30.645 38.0248 31.612 34.9998C33.738 28.3498 34.604 11.8718 33.027 8.06384C31.923 5.39984 27.419 3.01584 23.429 2.98484ZM6.15302 5.78184C5.37602 6.04084 5 9.72284 5 17.0628C5 27.7618 5.54801 30.4478 9.60901 39.6508C10.374 41.3838 11 43.2488 11 43.7938C11 45.2788 13.608 45.9998 18.977 45.9998C23.781 45.9998 23.791 45.9928 24.304 42.2498C24.587 40.1878 25.604 35.7998 26.564 32.4998C28.882 24.5358 29.606 11.7368 27.82 10.2958C25.599 8.50384 8.60802 4.96384 6.15302 5.78184ZM11.457 60.8468C11.068 57.3608 11.256 54.3898 11.948 53.0968C12.88 51.3558 14.009 50.9998 18.603 50.9998C23.586 50.9998 24.075 51.1888 23.531 52.9028C22.017 57.6738 21.011 67.3948 21.006 77.3158C21.002 83.7988 20.522 89.0068 19.806 90.3158C19.148 91.5198 18.421 97.9938 18.186 104.75C17.951 111.487 17.472 117 17.123 117C16.05 117 13.353 103 13.353 103L11.8 93.2018L11.932 86.6268C11.932 86.6268 12.949 74.2238 11.457 60.8468Z" fill="#858E9B"/>
</svg>
