<svg width="43" height="129" viewBox="0 0 43 129" fill="none" xmlns="http://www.w3.org/2000/svg">
<path fill-rule="evenodd" clip-rule="evenodd" d="M32.0851 6.42698C30.1131 4.73598 27.387 2.59898 26.027 1.67698C22.756 -0.542024 12.475 -0.552024 8.91203 1.65998C7.48903 2.54298 5.01403 5.34398 3.41203 7.88298C0.591025 12.356 0.501034 12.891 0.534034 25C0.567034 36.864 3.28403 41.73 3.28403 41.73C3.28403 41.73 6.00904 47.283 6.03104 50.73C6.06004 55.232 7.03804 63.516 9.01304 76C9.49104 79.025 10.537 86 11.336 91.5C13.009 103.013 14.186 106.791 21.157 123C23.339 128.075 23.7661 128.506 26.9161 128.818C32.8381 129.405 33 128.82 33 106.812C33 94.814 34.049 84.909 34.049 84.909C34.049 84.909 35.181 74.509 35.299 62.725C35.431 49.384 35.9 41.819 36.675 40.5C39.386 35.884 41.158 29.147 41.707 21.365C42.256 13.583 42.292 13.074 42.292 13.074C42.292 13.074 40.8021 12.27 38.9811 11.287C37.1601 10.304 34.0561 8.11698 32.0851 6.42698ZM9.97404 8.90698C7.78804 11.204 6.00004 15.108 6.00004 15.108C6.00004 15.108 5.21773 17.5541 4.91105 19.166C3.44085 26.8934 5.40106 33.08 8.42106 39C10.6071 43.287 10.971 43.534 16.108 44.222C23.269 45.182 30.013 44.21 30.674 42.125C30.958 41.231 32.0791 38.187 33.1661 35.361C34.2531 32.534 35.4951 27.809 35.9261 24.861C36.3571 21.912 36.888 18.898 37.105 18.162C37.322 17.426 36.131 16.071 34.458 15.149C32.784 14.228 29.3131 11.752 26.7441 9.64698C23.6551 7.11498 20.698 5.63498 18.011 5.27498C14.245 4.76898 13.657 5.03498 9.97404 8.90698ZM14.5151 76.5C13.6171 71.55 12.629 63.338 12.321 58.25C11.785 49.395 13.8221 49 13.8221 49L16.569 50.111C16.569 50.111 19.444 51.064 23.049 50.803L28.842 50.384L29.519 59.442C29.892 64.424 29.898 71.65 29.532 75.5C29.167 79.35 28.654 91.687 28.393 102.915C27.993 120.154 27.715 123.032 26.609 121.415C25.888 120.362 24.995 118.251 24.623 116.723C24.252 115.196 22.835 111.513 21.474 108.537C20.113 105.562 19 101.764 19 101.764L18.105 99.45C18.105 99.45 16.971 95.575 16.68 92C16.388 88.425 15.4141 81.45 14.5151 76.5Z" fill="#858E9B"/>
</svg>
