<svg width="55" height="108" viewBox="0 0 55 108" fill="none" xmlns="http://www.w3.org/2000/svg">
<path fill-rule="evenodd" clip-rule="evenodd" d="M51.9857 19.1228C51.9687 15.9608 49.5577 8.77981 47.4167 5.51181C46.5627 4.20781 43.9467 2.48781 41.6047 1.68981C38.0527 0.479808 36.7257 0.451809 33.6077 1.52381C31.5507 2.23081 29.0627 3.53881 28.0767 4.43081C26.4157 5.93481 25.9167 5.86081 21.1867 3.40681C14.5337 -0.0451915 10.7837 0.587809 5.44467 6.06181C5.44467 6.06181 2.54524 8.16279 1.5007 10.1058C-0.292406 13.4413 1 14.5 1.50369 19.8028C2.00738 25.1056 2.04167 31.2998 2.69467 33.4998C3.34667 35.6998 4.5827 39.8348 5.4407 42.6878C6.5907 46.5128 7.00471 52.4238 7.01571 65.1878C7.03371 86.8138 8.18968 91.1198 16.9677 102.246C21.3467 107.797 26.2507 107.996 26.2507 107.996C26.2507 107.996 31.0007 107.769 30.9967 105.75C30.9947 104.513 29.8237 101.25 28.3947 98.4998C26.6777 95.1958 25.6187 91.2468 25.2717 86.8568C24.6007 78.3608 25.8987 58.9998 27.1397 58.9998C28.2137 58.9998 33.9987 70.7448 33.9997 72.9288C34.0007 73.7148 34.4357 75.7398 34.9677 77.4288C35.4997 79.1178 37.3537 85.2248 39.0867 90.9998C43.7367 106.495 44.5287 108 48.0247 108C53.1537 108 54.5017 104.467 54.4947 91.0438C54.4897 81.4768 54.0887 78.3888 52.1537 73.0098C46.9197 58.4658 46.0817 42.9828 49.8057 29.6228C51.0127 25.2908 51.9937 20.5658 51.9857 19.1228ZM32.1827 8.49981C28.5307 11.5728 24.7667 11.6758 19.4297 8.84881C14.1947 6.07681 10.8677 6.86081 7.97067 11.5488C6.00267 14.7328 5.8487 15.8978 6.4877 22.7998C6.8797 27.0348 7.54669 30.9498 7.96969 31.4998C8.39369 32.0498 9.05272 34.2328 9.43472 36.3518L9.45417 36.4598C9.71395 37.902 9.88295 38.8401 10.4425 39.3475C11.4838 40.2918 13.8778 39.7444 20.727 38.1784L21.0007 38.1158C23.4757 37.5498 29.1367 37.0678 33.5817 37.0438L33.9585 37.0418C38.0171 37.0205 40.2065 37.0091 41.6336 35.9603C43.3051 34.7319 43.931 32.0806 45.2897 26.3238L45.3967 25.8708C46.8327 19.7888 46.8257 18.8428 45.3097 14.3918C42.4747 6.07381 37.6437 3.90481 32.1827 8.49981ZM19.0007 44.2548C19.8257 43.9378 22.7507 43.3508 25.5007 42.9518C29.7027 42.3408 39.8837 42.6788 40.7627 43.4578C40.9067 43.5858 41.4447 47.2468 41.9597 51.5948C43.2017 62.0898 44.3097 67.4748 46.4667 73.4998C47.4517 76.2498 48.6227 80.2998 49.0687 82.4998C50.0137 87.1618 49.1047 101 47.8537 101C47.3847 101 47.0007 100.18 47.0007 99.1778C47.0007 97.4168 44.7177 89.5978 43.0067 85.4998C42.2407 83.6658 41.6617 81.5688 38.9417 70.7778C37.3737 64.5578 32.1957 54.1738 30.1027 53.0548C27.3147 51.5618 23.1967 53.3548 21.9637 56.5968C21.4127 58.0458 20.7087 63.3408 20.3987 68.3648C20.0877 73.3888 19.4327 78.7728 18.9417 80.3278C18.0237 83.2388 18.9567 88.8458 21.6317 96.4998L23.0297 100.5L20.7557 97.9998C13.9087 90.4718 12.5897 84.8858 12.5407 63.2068L12.5007 45.9128L15.0007 45.3728C16.3757 45.0758 18.1757 44.5728 19.0007 44.2548Z" fill="#858E9B"/>
</svg>
