<svg width="35" height="124" viewBox="0 0 35 124" fill="none" xmlns="http://www.w3.org/2000/svg">
<path fill-rule="evenodd" clip-rule="evenodd" d="M10.7617 2.978C11.8227 2.97 14.4907 2.314 16.6907 1.522C18.8907 0.729004 22.9836 0.0610038 25.7856 0.0370038C33.6706 -0.0309962 34.1907 1.00601 34.1907 16.796C34.1907 29.112 33.9977 30.427 31.1327 37.638C28.4867 44.3 28.0107 46.96 27.5937 57.414C27.3287 64.057 27.1677 72.643 27.2367 76.493C27.3057 80.343 27.4117 86.418 27.4727 89.993C27.6767 102.014 24.1737 118.122 20.4587 122.243C19.5907 123.206 17.6356 123.993 16.1136 123.993C12.4676 123.993 11.5557 120.954 10.7557 106.131C10.4177 99.883 9.70265 93.95 9.16565 92.947C8.62965 91.945 8.16765 86.707 8.13965 81.309C8.11065 75.91 7.6387 68.343 7.0907 64.493C6.5417 60.643 5.69766 53.668 5.21466 48.993C4.73166 44.318 3.54567 38.018 2.57867 34.993C0.452674 28.343 -0.413304 11.865 1.1637 8.057C2.2677 5.393 6.77166 3.009 10.7617 2.978ZM28.0377 5.775C28.8147 6.034 29.1907 9.71601 29.1907 17.056C29.1907 27.755 28.6427 30.441 24.5817 39.644C23.8167 41.377 23.1907 43.242 23.1907 43.787C23.1907 45.272 20.5827 45.993 15.2137 45.993C10.4097 45.993 10.3997 45.986 9.88666 42.243C9.60366 40.181 8.58665 35.793 7.62665 32.493C5.30865 24.529 4.58467 11.73 6.37067 10.289C8.59167 8.497 25.5827 4.957 28.0377 5.775ZM22.7337 60.84C23.1227 57.354 22.9347 54.383 22.2427 53.09C21.3107 51.349 20.1816 50.993 15.5876 50.993C10.6046 50.993 10.1157 51.182 10.6597 52.896C12.1737 57.667 13.1797 67.388 13.1847 77.309C13.1887 83.792 13.6686 89 14.3846 90.309C15.0426 91.513 15.7697 97.987 16.0047 104.743C16.2397 111.48 16.7187 116.993 17.0677 116.993C18.1407 116.993 20.8376 102.993 20.8376 102.993L22.3907 93.195L22.2587 86.62C22.2587 86.62 21.2417 74.217 22.7337 60.84Z" fill="#858E9B"/>
</svg>
