<svg width="43" height="114" viewBox="0 0 43 114" fill="none" xmlns="http://www.w3.org/2000/svg">
<path fill-rule="evenodd" clip-rule="evenodd" d="M13.5547 5.99293C16.1907 4.61793 19.7747 2.72693 21.5187 1.79093C25.7417 -0.475069 26.2737 -0.430069 30.8007 2.57293C35.4427 5.65193 40.0757 10.6079 41.3027 13.8079C43.0207 18.2879 42.2927 25.8999 39.5797 31.8069C36.2567 39.0419 35.2328 45.0759 34.3488 62.6209C33.8678 72.1719 32.2737 78.3929 32.2737 78.3929C32.2737 78.3929 30.7647 83.5509 30.5087 89.7649C30.0467 100.977 28.7748 106.17 25.3718 110.743C23.6628 113.04 22.1448 113.993 20.1948 113.993C15.4908 113.993 14.7507 111.918 13.9937 96.5939C13.2577 81.6809 12.0237 70.4189 10.3137 62.9929C9.74372 60.5179 9.25874 55.2239 9.23474 51.2289C9.21074 47.2339 8.77271 43.1839 8.26171 42.2289C3.08371 32.5509 0.190731 24.9629 0.190731 21.0629C0.190731 17.1669 0.692704 16.1729 4.4757 12.5719C6.8327 10.3279 10.9187 7.36793 13.5547 5.99293ZM31.6057 10.6069C33.6527 12.5949 35.7767 15.4029 36.3257 16.8469C37.3467 19.5339 36.7667 24.9589 35.1477 27.8659C33.2147 31.3349 31.1907 37.3459 31.1907 39.6149C31.1907 41.6879 30.7187 41.9929 27.5117 41.9929C25.4887 41.9929 22.4507 41.5589 20.7617 41.0279C19.0727 40.4969 16.5657 39.8269 15.1907 39.5389C12.7577 39.0289 10.3377 34.9059 6.18573 24.1929C4.69473 20.3459 5.95372 16.9549 9.55072 15.1259C10.7277 14.5279 13.4907 12.9079 15.6907 11.5259C24.6667 5.88993 26.6317 5.77593 31.6057 10.6069ZM24.2678 46.9779C21.7508 46.9689 19.0157 46.5259 18.1907 45.9929C17.3657 45.4599 16.3197 45.0169 15.8677 45.0079C14.7057 44.9869 15.6237 59.4009 17.6497 72.9929C18.5927 79.3179 19.5987 89.8119 19.8847 96.3119C20.3637 107.182 20.5257 107.959 21.9067 105.989C22.8357 104.662 23.7298 99.8139 24.2548 93.2609C25.1598 81.9419 27.1877 75.4929 27.1877 75.4929C27.1877 75.4929 28.1537 68.3059 28.3997 60.7429L28.8458 46.9929L24.2678 46.9779Z" fill="#858E9B"/>
</svg>
