<svg width="55" height="108" viewBox="0 0 55 108" fill="none" xmlns="http://www.w3.org/2000/svg">
<path fill-rule="evenodd" clip-rule="evenodd" d="M3.20499 19.116C3.22199 15.954 5.63296 8.77297 7.77396 5.50497C8.62796 4.20097 11.244 2.48097 13.586 1.68297C17.138 0.472972 18.465 0.444973 21.583 1.51697C23.64 2.22397 26.128 3.53197 27.114 4.42397C28.775 5.92797 29.274 5.85397 34.004 3.39997C40.657 -0.0520275 44.407 0.580973 49.746 6.05497C49.746 6.05497 52.6454 8.15595 53.69 10.099C55.4831 13.4345 54.1907 14.4932 53.687 19.796C53.1833 25.0988 53.149 31.293 52.496 33.493C51.844 35.693 50.608 39.828 49.75 42.681C48.6 46.506 48.186 52.417 48.175 65.181C48.157 86.807 47.001 91.113 38.223 102.239C33.844 107.79 28.94 107.989 28.94 107.989C28.94 107.989 24.19 107.762 24.194 105.743C24.196 104.506 25.367 101.243 26.796 98.493C28.513 95.189 29.572 91.24 29.919 86.85C30.59 78.354 29.292 58.993 28.051 58.993C26.977 58.993 21.1919 70.738 21.1909 72.922C21.1899 73.708 20.755 75.733 20.223 77.422C19.691 79.111 17.837 85.218 16.104 90.993C11.454 106.488 10.662 107.993 7.16599 107.993C2.03698 107.993 0.688953 104.46 0.695953 91.037C0.700953 81.47 1.10196 78.382 3.03696 73.003C8.27096 58.459 9.10898 42.976 5.38498 29.616C4.17798 25.284 3.19699 20.559 3.20499 19.116ZM23.008 8.49297C26.66 11.566 30.424 11.669 35.761 8.84197C40.996 6.06997 44.323 6.85397 47.22 11.542C49.188 14.726 49.342 15.891 48.703 22.793C48.311 27.028 47.644 30.943 47.221 31.493C46.797 32.043 46.138 34.226 45.756 36.345L45.7365 36.453C45.4767 37.8952 45.3077 38.8333 44.7482 39.3407C43.7069 40.285 41.3129 39.7376 34.4637 38.1715L34.19 38.109C31.715 37.543 26.054 37.061 21.609 37.037L21.2322 37.035C17.1736 37.0137 14.9842 37.0022 13.5571 35.9535C11.8856 34.7251 11.2597 32.0737 9.90094 26.3169L9.79398 25.864C8.35798 19.782 8.36495 18.836 9.88095 14.385C12.716 6.06697 17.547 3.89797 23.008 8.49297ZM36.19 44.248C35.365 43.931 32.44 43.344 29.69 42.945C25.488 42.334 15.3069 42.672 14.4279 43.451C14.2839 43.579 13.746 47.24 13.231 51.588C11.989 62.083 10.881 67.468 8.72397 73.493C7.73897 76.243 6.56798 80.293 6.12198 82.493C5.17698 87.155 6.08594 100.993 7.33694 100.993C7.80594 100.993 8.18997 100.173 8.18997 99.171C8.18997 97.41 10.473 89.591 12.184 85.493C12.95 83.659 13.529 81.562 16.249 70.771C17.817 64.551 22.995 54.167 25.088 53.048C27.876 51.555 31.994 53.348 33.227 56.59C33.778 58.039 34.482 63.334 34.792 68.358C35.103 73.382 35.758 78.766 36.249 80.321C37.167 83.232 36.234 88.839 33.559 96.493L32.161 100.493L34.435 97.993C41.282 90.465 42.601 84.879 42.65 63.2L42.69 45.906L40.19 45.366C38.815 45.069 37.015 44.566 36.19 44.248Z" fill="#858E9B"/>
</svg>
