<svg width="52" height="87" viewBox="0 0 52 87" fill="none" xmlns="http://www.w3.org/2000/svg">
<path fill-rule="evenodd" clip-rule="evenodd" d="M8.5478 5.47503C11.0068 3.11903 14.3298 1.01503 16.1728 0.647028C21.4628 -0.410972 22.8738 -0.144972 26.0288 2.51003C29.1748 5.15703 29.5288 5.13203 36.8908 1.72603C41.8178 -0.552973 49.4918 5.93803 51.2798 13.895C52.4188 18.962 50.9568 26.779 47.9498 31.713C46.6818 33.792 44.8148 38.193 43.8018 41.493C42.7878 44.793 41.6008 48.393 41.1628 49.493C40.7248 50.593 39.3148 54.868 38.0288 58.993C34.2208 71.207 22.4048 86.993 17.0698 86.993C15.3898 86.993 13.8838 86.356 13.5578 85.507C13.0538 84.193 12.7428 84.193 10.8668 85.507C9.69983 86.324 6.59578 86.993 3.96778 86.993C1.33978 86.993 1.29733 87.0089 0.190674 85.507C-0.624782 84.4004 1.4408 76.223 1.4408 76.223C1.4408 76.223 7.13982 65.502 8.30482 58.993C10.9618 44.135 10.7568 41.62 5.54981 25.208C4.80281 22.851 4.1908 18.387 4.1908 15.287C4.1908 9.93903 4.4138 9.43603 8.5478 5.47503ZM25.4218 8.67603C29.0388 11.16 29.2578 11.189 32.5728 9.61603C39.5258 6.31703 42.4177 8.28303 45.1907 15.287C46.6897 19.072 42.6378 29.993 42.6378 29.993C42.6378 29.993 40.1318 34.618 39.7018 35.993C39.2728 37.368 38.4198 38.824 37.8058 39.228C37.1928 39.632 31.8538 39.969 25.9408 39.978C16.1778 39.992 15.1908 38.16 15.1908 38.16L14.4418 35.577C14.4418 35.577 11.5368 27.094 9.90382 18.629C9.90382 18.629 9.06474 15.1693 9.90382 12.9932C10.6079 11.167 12.4668 9.37903 12.4668 9.37903C16.9368 5.28303 20.2218 5.10403 25.4218 8.67603ZM32.5158 58.734C33.5188 55.302 34.8998 50.918 35.5838 48.993L36.8268 45.493H26.0858H15.3458L14.9058 50.493C13.8028 63.052 9.85482 75.472 5.61982 79.707C4.04682 81.28 3.72881 82.993 5.01081 82.993C7.19081 82.993 12.4628 76.663 15.6458 70.222C17.5958 66.277 19.1908 62.51 19.1908 62.51C19.1908 62.51 23.6638 52.993 24.8008 52.993C26.4358 52.993 25.2258 61.757 25.2258 61.757C25.2258 61.757 20.1088 73.454 20.3818 75.755C20.6718 78.209 20.9488 78.025 24.9408 72.723C27.2778 69.619 29.1908 66.036 29.1908 66.036L29.9408 64.984C29.9408 64.984 31.5118 62.167 32.5158 58.734Z" fill="#858E9B"/>
</svg>
