<svg width="132" height="118" viewBox="0 0 132 118" fill="none" xmlns="http://www.w3.org/2000/svg">
<path d="M19.6667 118V104.889H111.444V118H19.6667ZM19.6667 95.0556L11.3083 42.4472C11.0898 42.4472 10.8429 42.4756 10.5676 42.5325C10.2922 42.5893 10.0475 42.6155 9.83335 42.6111C7.10187 42.6111 4.7812 41.654 2.87135 39.7398C0.961496 37.8256 0.00438527 35.5049 1.4899e-05 32.7778C-0.00435547 30.0507 0.952755 27.73 2.87135 25.8158C4.78994 23.9016 7.11061 22.9445 9.83335 22.9445C12.5561 22.9445 14.8789 23.9016 16.8019 25.8158C18.7249 27.73 19.6798 30.0507 19.6667 32.7778C19.6667 33.5426 19.5836 34.2528 19.4176 34.9083C19.2515 35.5639 19.0614 36.1648 18.8472 36.7111L39.3333 45.8889L59.8195 17.8639C58.6176 16.9898 57.6343 15.8426 56.8695 14.4222C56.1046 13.0019 55.7222 11.4722 55.7222 9.83335C55.7222 7.10187 56.6793 4.77901 58.5936 2.86479C60.5078 0.950571 62.8285 -0.00435544 65.5556 1.49329e-05C68.2827 0.0043853 70.6055 0.961496 72.5241 2.87135C74.4427 4.7812 75.3976 7.10187 75.3889 9.83335C75.3889 11.4722 75.0065 13.0019 74.2417 14.4222C73.4769 15.8426 72.4935 16.9898 71.2917 17.8639L91.7778 45.8889L112.264 36.7111C112.045 36.1648 111.853 35.5639 111.687 34.9083C111.521 34.2528 111.44 33.5426 111.444 32.7778C111.444 30.0463 112.402 27.7235 114.316 25.8092C116.23 23.895 118.551 22.9401 121.278 22.9445C124.005 22.9488 126.328 23.9059 128.246 25.8158C130.165 27.7256 131.12 30.0463 131.111 32.7778C131.102 35.5093 130.147 37.8321 128.246 39.7463C126.345 41.6606 124.022 42.6155 121.278 42.6111C121.059 42.6111 120.815 42.5849 120.544 42.5325C120.273 42.48 120.026 42.4516 119.803 42.4472L111.444 95.0556H19.6667ZM30.8111 81.9444H100.3L104.561 54.575L87.3528 62.1139L65.5556 32.1222L43.7583 62.1139L26.55 54.575L30.8111 81.9444Z" fill="#FBBC04"/>
</svg>
