<svg width="105" height="118" viewBox="0 0 105 118" fill="none" xmlns="http://www.w3.org/2000/svg">
<path d="M90.1391 0C71.7016 0 68.3418 6.55545 52.4445 6.55545C36.3834 6.55545 32.6959 0 14.75 0C6.61676 0 0 6.61676 0 14.75V40.9723C0 49.1055 6.61676 55.7223 14.75 55.7223H29.5V57.6195L23.391 59.147L25.7756 68.6866L29.4998 67.7557V77.2863L23.3907 78.8139L25.7754 88.3534L29.4995 87.4226V96.9531L23.3905 98.4807L25.7752 108.02L29.9752 106.97C31.6291 113.308 37.4012 118 44.25 118H57.3611C65.4946 118 72.1111 111.383 72.1111 103.25V96.4362L78.2202 94.9086L75.8355 85.3691L72.1109 86.2999V76.7694L78.2199 75.2418L75.8353 65.7023L72.1107 66.6331V57.1026L77.6327 55.722H90.1384C98.2719 55.722 104.888 49.1053 104.888 40.972V14.75C104.889 6.61676 98.2726 0 90.1391 0ZM62.278 103.25C62.278 105.961 60.0724 108.167 57.3614 108.167H44.2502C42.0018 108.167 40.1055 106.648 39.5219 104.583L62.278 98.8944V103.25ZM62.278 88.7584L39.3334 94.4945V84.9641L62.278 79.228V88.7584ZM62.278 69.0915L39.3334 74.8277V65.2971L62.278 59.561V69.0915ZM95.0557 40.9723C95.0557 43.6833 92.8503 45.8889 90.1391 45.8889H14.75C12.039 45.8889 9.83341 43.6833 9.83341 40.9723V14.75C9.83341 12.039 12.039 9.83341 14.75 9.83341C30.4834 9.83341 34.007 16.3889 52.4445 16.3889C70.7182 16.3889 74.1598 9.83341 90.1391 9.83341C92.8506 9.83341 95.0557 12.039 95.0557 14.75V40.9723Z" fill="#AFB6BB"/>
</svg>
