<svg width="45" height="133" viewBox="0 0 45 133" fill="none" xmlns="http://www.w3.org/2000/svg">
<path fill-rule="evenodd" clip-rule="evenodd" d="M8.91296 25.4196C9.50796 6.87862 10.3009 2.53862 13.3979 0.881618C15.8299 -0.420382 16.5059 -0.343382 19.1899 1.53662C21.6729 3.27462 24.6549 9.36762 25.7599 14.9596C26.1359 16.8626 26.8119 19.3196 27.2629 20.4196C28.8429 24.2766 30.546 33.1046 31.374 41.7216C33.631 65.2336 34.508 72.5846 35.275 74.4196C35.735 75.5196 36.6469 79.3446 37.3019 82.9196C37.9569 86.4946 38.938 91.2196 39.481 93.4196C43.281 108.798 44.6889 117.342 43.9239 120.388C42.3569 126.633 30.931 132.931 21.227 132.898C13.284 132.871 7.79498 130.524 3.50598 125.321C-0.865022 120.018 -0.788028 114.422 3.84997 100.213C7.29697 89.6546 7.35997 89.1686 6.74597 77.9196C6.40097 71.5946 6.61799 61.2446 7.22699 54.9196C7.83699 48.5946 8.59496 35.3196 8.91296 25.4196ZM31.077 91.5466C33.162 92.5876 34.327 93.9056 34.327 95.2236C34.327 96.3536 34.756 98.6596 35.279 100.349C35.803 102.038 36.969 106.728 37.87 110.771L39.508 118.121L36.694 121.059C28.969 129.122 17.3749 130.076 9.45794 123.301C4.18094 118.783 4.14796 116.263 9.16796 101.42L12.889 90.4196L20.358 90.1716C25.658 89.9956 28.771 90.3946 31.077 91.5466ZM19.4 12.1556C18.89 11.2006 18.229 9.63162 17.931 8.66962C17.633 7.70762 16.9719 6.91962 16.4609 6.91962C15.3619 6.91962 14.0549 27.9086 12.7499 66.4936L12.139 84.5676L21.733 84.5116C30.937 84.4566 31.327 84.3656 31.327 82.2526C31.327 81.0406 30.88 78.8746 30.334 77.4376C29.317 74.7626 27.8399 62.9756 26.3539 45.6806C25.5219 35.9916 24.248 29.3096 21.675 21.1346C20.934 18.7776 20.327 16.1846 20.327 15.3706C20.327 14.5576 19.91 13.1106 19.4 12.1556Z" fill="#858E9B"/>
</svg>
