<svg width="43" height="118" viewBox="0 0 43 118" fill="none" xmlns="http://www.w3.org/2000/svg">
<path fill-rule="evenodd" clip-rule="evenodd" d="M6.2501 24.2735C5.6081 4.65749 5.64615 4.08649 7.70915 2.02349C10.0161 -0.283514 12.3431 -0.606515 15.0961 0.996485C17.1791 2.20849 23.7521 15.0515 26.3091 22.9055C27.2941 25.9305 28.4651 29.3055 28.9101 30.4055C30.2701 33.7615 31.9561 48.6265 32.7101 63.9055L33.4261 78.4055L37.8442 86.4055C41.7452 93.4685 42.2661 95.1505 42.2951 100.762C42.3251 106.819 42.1621 107.259 38.8271 110.052C33.7161 114.334 25.5542 117.905 20.8782 117.905C15.6822 117.905 9.03912 114.784 4.43412 110.178C0.873124 106.618 0.827129 106.466 0.827129 98.3035C0.827129 93.7565 1.37213 88.7685 2.03813 87.2205C2.70413 85.6725 3.56013 77.8805 3.93913 69.9055C4.31813 61.9305 5.14215 52.9305 5.76915 49.9055C6.54215 46.1755 6.6971 37.9275 6.2501 24.2735ZM15.5431 12.1065C17.3121 15.7925 19.4322 20.4165 20.2532 22.3835C23.9382 31.2025 26.8191 49.7275 26.8241 64.6365L26.8271 72.8675L22.5771 72.3045C20.2401 71.9955 16.4111 72.1815 14.0701 72.7195C9.96711 73.6605 9.7891 73.6005 9.1511 71.0605C8.7871 69.6115 9.10913 64.8215 9.86613 60.4155C10.6231 56.0105 11.4861 41.8305 11.7851 28.9055L12.3271 5.40549L15.5431 12.1065ZM29.7121 82.5975C28.8241 80.9085 27.2491 79.1935 26.2121 78.7865C23.4581 77.7045 15.3561 77.7535 12.4201 78.8705C10.8361 79.4725 9.65514 80.8805 9.27714 82.6205C8.94414 84.1525 8.28513 86.3055 7.81413 87.4055C5.48113 92.8435 4.15814 99.7495 5.10514 101.537C6.94314 105.007 11.3051 109.066 15.2651 110.991C21.5091 114.026 23.1081 113.715 32.5771 107.617C36.4521 105.121 36.8271 104.515 36.8271 100.739C36.8271 96.9445 35.5671 93.7315 29.7121 82.5975Z" fill="#858E9B"/>
</svg>
