<svg width="34" height="119" viewBox="0 0 34 119" fill="none" xmlns="http://www.w3.org/2000/svg">
<path fill-rule="evenodd" clip-rule="evenodd" d="M28.2115 16.381C28.7335 6.168 28.6116 5.047 26.7106 2.631C25.5726 1.184 24.0215 0 23.2645 0C21.4045 0 17.1105 5.796 16.2265 9.5C15.8325 11.15 15.1745 12.95 14.7645 13.5C14.3535 14.05 13.7145 16.075 13.3435 18C12.9735 19.925 12.2945 22.4 11.8355 23.5C9.82255 28.322 7.78654 40.407 7.78654 47.528C7.78654 56.091 6.65754 64.28 2.20454 88C-0.0374622 99.944 -0.648473 110.319 0.737527 112.909C2.47453 116.155 7.02554 117.684 17.2865 118.469C25.7005 119.113 26.5145 119.004 29.7865 116.791L33.2865 114.423L33.5625 98.052C33.8155 83.003 33.6656 81.35 31.7126 77.59C29.8316 73.97 29.4755 70.857 28.6145 50.5C28.0805 37.85 27.8985 22.496 28.2115 16.381ZM11.4985 77.391C9.96954 78.808 8.66953 81.355 8.30753 83.641C7.97153 85.764 7.42452 88.625 7.09052 90C6.75752 91.375 6.43954 96.775 6.38554 102L6.28654 111.5L13.3045 112.047C17.1635 112.349 20.8995 112.952 21.6045 113.388C22.3285 113.835 24.3905 113.467 26.3365 112.543L29.7865 110.906V98.562C29.7865 88.648 29.4175 85.394 27.9115 82.03C24.7615 74.996 16.5785 72.683 11.4985 77.391ZM12.7265 51C13.6395 37.323 14.5475 32.757 19.5205 16.858C21.0415 11.996 22.5875 8.013 22.9555 8.009C23.3245 8.004 23.1565 9.688 22.5835 11.75C21.9005 14.212 21.8275 20.308 22.3725 29.5C22.8295 37.2 23.2215 49.461 23.2445 56.747L23.2865 69.993L18.6185 69.997C16.0505 69.999 13.1765 70.297 12.2315 70.66C10.7445 71.23 10.6015 70.859 11.1695 67.91C11.5305 66.034 12.2315 58.425 12.7265 51Z" fill="#858E9B"/>
</svg>
