<svg width="45" height="133" viewBox="0 0 45 133" fill="none" xmlns="http://www.w3.org/2000/svg">
<path fill-rule="evenodd" clip-rule="evenodd" d="M35.868 25.4196C35.273 6.87862 34.4801 2.53862 31.3831 0.881618C28.9511 -0.420382 28.2751 -0.343382 25.5911 1.53662C23.1081 3.27462 20.1261 9.36762 19.0211 14.9596C18.6451 16.8626 17.9691 19.3196 17.5181 20.4196C15.9381 24.2766 14.235 33.1046 13.407 41.7216C11.15 65.2336 10.273 72.5846 9.50605 74.4196C9.04605 75.5196 8.13407 79.3446 7.47907 82.9196C6.82407 86.4946 5.84305 91.2196 5.30005 93.4196C1.50005 108.798 0.0920592 117.342 0.857059 120.388C2.42406 126.633 13.85 132.931 23.554 132.898C31.497 132.871 36.986 130.524 41.275 125.321C45.646 120.018 45.569 114.422 40.931 100.213C37.484 89.6546 37.421 89.1686 38.035 77.9196C38.38 71.5946 38.163 61.2446 37.554 54.9196C36.944 48.5946 36.186 35.3196 35.868 25.4196ZM13.704 91.5466C11.619 92.5876 10.454 93.9056 10.454 95.2236C10.454 96.3536 10.025 98.6596 9.50202 100.349C8.97802 102.038 7.81201 106.728 6.91101 110.771L5.27301 118.121L8.08704 121.059C15.812 129.122 27.4061 130.076 35.3231 123.301C40.6001 118.783 40.633 116.263 35.613 101.42L31.892 90.4196L24.423 90.1716C19.123 89.9956 16.01 90.3946 13.704 91.5466ZM25.381 12.1556C25.891 11.2006 26.552 9.63162 26.85 8.66962C27.148 7.70762 27.8091 6.91962 28.3201 6.91962C29.4191 6.91962 30.7261 27.9086 32.0311 66.4936L32.642 84.5676L23.048 84.5116C13.844 84.4566 13.454 84.3656 13.454 82.2526C13.454 81.0406 13.901 78.8746 14.447 77.4376C15.464 74.7626 16.9411 62.9756 18.4271 45.6806C19.2591 35.9916 20.533 29.3096 23.106 21.1346C23.847 18.7776 24.454 16.1846 24.454 15.3706C24.454 14.5576 24.871 13.1106 25.381 12.1556Z" fill="#858E9B"/>
</svg>
