<svg width="40" height="115" viewBox="0 0 40 115" fill="none" xmlns="http://www.w3.org/2000/svg">
<path fill-rule="evenodd" clip-rule="evenodd" d="M33.5549 16.5C34.1549 7.483 34.0189 6.181 32.1769 3.25C31.0019 1.38 29.2998 0 28.1708 0C24.6878 0 20.5289 7.343 18.5599 16.967C18.1699 18.874 17.4799 21.124 17.0259 21.967C16.5729 22.81 15.5679 25.075 14.7939 27C14.0199 28.925 12.8339 31.844 12.1589 33.486C11.4849 35.128 10.5319 39.403 10.0419 42.986C9.55187 46.569 8.90285 51.3 8.59985 53.5C7.02185 64.942 4.79583 77.054 3.45483 81.5C2.62483 84.25 1.72283 89.875 1.44983 94L0.953857 101.5L5.77985 106.614C12.2398 113.462 16.0799 115.333 22.5709 114.794C28.6939 114.287 36.2208 109.61 38.7328 104.753C41.3778 99.637 39.5409 83.965 35.5969 78C33.5889 74.963 32.2819 35.618 33.5549 16.5ZM13.3549 75.648C11.4009 76.611 10.1049 78.003 10.1049 79.138C10.1049 80.177 9.67284 81.809 9.14484 82.764C8.61784 83.719 7.75085 86.525 7.21985 89C6.68785 91.475 5.95488 94.463 5.59088 95.641C5.07488 97.31 5.90384 98.741 9.35583 102.141C11.7918 104.538 14.6219 107.165 15.6459 107.977C18.7039 110.405 24.1299 109.787 29.1149 106.443L33.6049 103.432L33.8969 96.305C34.1359 90.472 33.6949 87.909 31.4709 82.191C28.9229 75.641 28.5298 75.168 25.1788 74.613C19.5668 73.685 16.8549 73.922 13.3549 75.648ZM25.1058 13.5C25.5038 12.95 26.1288 11.244 26.4958 9.709C27.7108 4.63 29.4099 7.806 28.7319 13.887C26.6729 32.34 26.4338 37.213 27.2308 44.5C27.7128 48.9 28.3838 55.071 28.7228 58.214C29.0628 61.356 29.0399 65.124 28.6729 66.586C28.0379 69.115 27.7758 69.214 23.3038 68.621C20.7178 68.278 17.1108 68.425 15.2878 68.948L11.9739 69.898L12.5948 64.199C12.9358 61.065 13.6109 56.475 14.0939 54C14.5779 51.525 15.2239 46.976 15.5309 43.891C16.0769 38.402 17.1628 35.025 21.2618 26.062C22.3778 23.622 23.5369 20.022 23.8369 18.062C24.1369 16.103 24.7078 14.05 25.1058 13.5Z" fill="#858E9B"/>
</svg>
