<svg width="43" height="92" viewBox="0 0 43 92" fill="none" xmlns="http://www.w3.org/2000/svg">
<path fill-rule="evenodd" clip-rule="evenodd" d="M42.3819 12.839C43.4339 5.824 42.34 2.355 38.669 1.076C36.971 0.484 35.5249 0 35.4539 0C34.8469 0 30.129 3.739 29.203 4.954C27.468 7.23 14.8809 32.434 14.8809 33.631C14.8809 36.791 8.09492 54.309 5.05392 59C2.07092 63.601 1.41995 65.604 1.07095 71.253C0.396946 82.184 1.46195 86.774 5.20095 89.053C8.78995 91.242 14.675 91.565 19.456 89.837C22.103 88.88 23.2949 88.968 26.1779 90.337C31.4429 92.835 35.337 92.458 39.115 89.084C42.372 86.176 42.382 86.14 42.711 75.334C42.954 67.34 42.585 62.796 41.302 58C38.979 49.318 39.3719 32.916 42.3819 12.839ZM13.3809 58.95C12.2809 59.403 10.2559 61.287 8.88094 63.137C6.68794 66.087 6.38292 67.505 6.39492 74.681C6.40292 79.18 6.71797 83.171 7.09597 83.548C8.72297 85.175 16.6269 85.183 19.7649 83.56C22.8259 81.977 23.1379 81.996 26.2979 83.949C28.1239 85.077 30.972 86 32.628 86C35.077 86 35.8929 85.394 37.0059 82.75C39.0209 77.962 38.8129 66.687 36.6659 64.315C33.3139 60.61 17.9469 57.07 13.3809 58.95ZM28.776 17.333C30.968 12.894 33.5289 8.495 34.4669 7.557C36.6189 5.405 38.1409 7.241 37.3479 11.032C36.3849 15.633 34.657 33.339 34.198 43.316C33.884 50.125 34.116 53.578 34.956 54.59C36.73 56.728 35.677 57.126 32.544 55.5C31.034 54.717 26.4419 53.772 22.3399 53.4C14.7709 52.714 14.17 52.332 15.789 49.236C16.288 48.281 18.139 43 19.901 37.5C21.664 32 23.4859 27.028 23.9489 26.452C24.4119 25.875 26.584 21.772 28.776 17.333Z" fill="#858E9B"/>
</svg>
