<svg width="43" height="114" viewBox="0 0 43 114" fill="none" xmlns="http://www.w3.org/2000/svg">
<path fill-rule="evenodd" clip-rule="evenodd" d="M29.6359 5.99977C26.9999 4.62477 23.4159 2.73377 21.6719 1.79777C17.4489 -0.468233 16.917 -0.423233 12.39 2.57977C7.74796 5.65877 3.11494 10.6148 1.88794 13.8148C0.169942 18.2948 0.897964 25.9068 3.61096 31.8138C6.93396 39.0488 7.95792 45.0828 8.84192 62.6278C9.32292 72.1788 10.9169 78.3998 10.9169 78.3998C10.9169 78.3998 12.4259 83.5578 12.6819 89.7718C13.1439 100.984 14.4159 106.177 17.8189 110.75C19.5279 113.047 21.0459 114 22.9959 114C27.6999 114 28.44 111.925 29.197 96.6008C29.933 81.6878 31.167 70.4258 32.877 62.9998C33.447 60.5248 33.9319 55.2308 33.9559 51.2358C33.9799 47.2408 34.418 43.1908 34.929 42.2358C40.107 32.5578 42.9999 24.9698 42.9999 21.0698C42.9999 17.1738 42.498 16.1798 38.715 12.5788C36.358 10.3348 32.2719 7.37477 29.6359 5.99977ZM11.585 10.6138C9.53796 12.6018 7.41393 15.4098 6.86493 16.8538C5.84393 19.5408 6.42397 24.9658 8.04297 27.8728C9.97597 31.3418 11.9999 37.3528 11.9999 39.6218C11.9999 41.6948 12.472 41.9998 15.679 41.9998C17.702 41.9998 20.74 41.5658 22.429 41.0348C24.118 40.5038 26.6249 39.8338 27.9999 39.5458C30.4329 39.0358 32.8529 34.9128 37.0049 24.1998C38.4959 20.3528 37.237 16.9618 33.64 15.1328C32.463 14.5348 29.6999 12.9148 27.4999 11.5328C18.5239 5.89677 16.559 5.78277 11.585 10.6138ZM18.9229 46.9848C21.4399 46.9758 24.1749 46.5328 24.9999 45.9998C25.8249 45.4668 26.8709 45.0238 27.3229 45.0148C28.4849 44.9938 27.567 59.4078 25.541 72.9998C24.598 79.3248 23.592 89.8188 23.306 96.3188C22.827 107.189 22.6649 107.966 21.2839 105.996C20.3549 104.669 19.4609 99.8208 18.9359 93.2678C18.0309 81.9488 16.0029 75.4998 16.0029 75.4998C16.0029 75.4998 15.037 68.3128 14.791 60.7498L14.3449 46.9998L18.9229 46.9848Z" fill="#858E9B"/>
</svg>
