<svg width="45" height="115" viewBox="0 0 45 115" fill="none" xmlns="http://www.w3.org/2000/svg">
<path fill-rule="evenodd" clip-rule="evenodd" d="M30.506 4.61605C28.86 3.45205 25.935 1.94405 24.006 1.26505C22.078 0.586054 19.825 0.0600534 19 0.0970534C15.483 0.253053 10.973 3.26205 5.66901 8.99105C0.620007 14.4441 0 15.5811 0 19.3791C0 21.7251 0.621996 25.6361 1.383 28.0721C4.191 37.0651 4.86399 40.7851 5.98199 53.5001C6.61099 60.6501 7.51398 69.4251 7.98798 73.0001C8.46198 76.5751 9.36899 83.5501 10.003 88.5001C11.412 99.5091 13.126 104.87 17.071 110.604C19.586 114.259 20.636 114.999 23.298 114.992C25.794 114.986 26.776 114.391 27.75 112.293C29.241 109.083 28 97.5001 28 97.5001C28 97.5001 29.567 73.0341 31.54 61.5001C33.86 47.9311 34.819 44.3121 38.085 36.7791C42.836 25.8241 45 19.7621 45 17.4101C45 14.7711 41.346 10.7411 36.887 8.46205C35.024 7.51005 32.153 5.77905 30.506 4.61605ZM17.189 6.83005C14.296 7.67005 6.089 15.7971 5.414 18.4901C5.137 19.5961 5.60602 22.4691 6.45502 24.8761C7.30502 27.2821 8 30.2501 8 31.4711C8 32.6911 8.788 34.3581 9.75 35.1731C12.28 37.3181 21.544 40.0001 26.422 40.0001C26.6739 40.0001 26.9101 40.0023 27.1326 40.0044C28.2068 40.0147 28.959 40.0219 29.598 39.7565C31.0909 39.1363 31.9657 37.0279 34.8842 29.9933C35.1434 29.3685 35.4187 28.7049 35.712 28.0001C36.513 26.0751 37.58 23.7191 38.084 22.7641C40.286 18.5901 39.127 16.6241 31.631 11.8101C23.814 6.79105 20.85 5.76905 17.189 6.83005ZM14.925 82.0001C13.805 76.8961 12.063 61.2561 11.338 49.7981L10.851 42.0971L14.175 43.1581C16.004 43.7421 20.087 44.6821 23.25 45.2481C27.744 46.0511 29 46.6701 29 48.0791C29 49.0711 28.117 50.4281 28.117 50.4281C28.117 50.4281 26.917 53.5671 26.53 56.7371C26.143 59.9071 24.242 68.5001 24.242 68.5001C24.242 68.5001 21.491 94.0611 23.083 100.782C24.431 106.471 23.428 109.425 21.1 106.62C19.001 104.091 16.002 94.7001 15.956 90.5141C15.932 88.3061 15.469 84.4751 14.925 82.0001Z" fill="#858E9B"/>
</svg>
