<svg width="57" height="100" viewBox="0 0 57 100" fill="none" xmlns="http://www.w3.org/2000/svg">
<path fill-rule="evenodd" clip-rule="evenodd" d="M24.9999 3.09312C24.9999 3.09312 23.8539 1.79912 22.4529 1.16112C18.9969 -0.41388 15.4329 -0.16388 9.55686 2.06612C1.83386 4.99712 0.156832 15.5541 0.156832 15.5541C0.156832 15.5541 -0.0751555 23.3141 3.23184 28.2951C7.81284 35.1951 9.81182 42.8671 8.19382 47.3401C6.74782 51.3381 4.85638 60.8575 7.99985 68.5001C8.35317 69.3591 8.99985 70.6581 8.99985 70.6581C8.99985 70.6581 11.8978 79.0491 12.9478 80.0001C13.2518 80.2751 14.6249 82.7171 15.9999 85.4271C17.3749 88.1371 20.3348 92.2991 22.5788 94.6771C25.9348 98.2341 27.3009 99.0001 30.2929 99.0001C37.5499 99.0001 37.5259 94.0041 30.1949 79.0521C25.4059 69.2831 24.3159 62.8071 26.2749 55.7501C27.1649 52.5431 29.5839 52.1131 30.4999 55.0001C30.8489 56.1001 31.4809 57.0001 31.9049 57.0001C32.8699 57.0001 37.4639 66.3021 39.3739 72.1241C40.1629 74.5311 41.1138 79.9761 41.4878 84.2251C42.3888 94.4871 44.3713 101.104 50.7008 98.8031C53.4752 97.7946 55.3149 96.7971 56.0149 93.4271C56.7149 90.0571 57.0298 82.6121 56.7888 75.1231C56.4068 63.1971 56.1759 62.0081 52.6029 53.5901C48.4909 43.9021 48.4188 42.4621 51.5108 31.5001C52.4418 28.2001 53.6838 22.6721 54.2718 19.2171C55.2408 13.5161 55.1538 12.6811 53.3258 10.2171C52.2178 8.72212 49.5028 6.22012 47.2918 4.65612C42.2498 1.08912 34.3789 0.447121 31.1789 3.34012C29.2259 5.10612 24.9999 3.09312 24.9999 3.09312ZM12.5149 7.16412C6.97086 9.17512 6 12 5.5 16C4.87983 20.9614 6.39287 22.5901 9.31687 27.5261L14.6349 36.5001L20.5669 37.1411C23.8299 37.4941 29.9919 37.8321 34.2599 37.8911C40.8599 37.9841 42.2748 37.7021 43.7298 36.0021C45.5338 33.8961 47.8128 25.5561 48.6508 18.0001C49.0968 13.9831 48.8278 13.1931 46.1508 10.6361C42.0778 6.74512 35.3238 5.88012 32.5918 8.89812C30.2748 11.4581 27.0728 11.5881 23.8778 9.25012C18.6548 5.42912 17.7549 5.26412 12.5149 7.16412ZM13.3589 67.2371C11.8639 62.8331 11.8769 61.6631 13.5769 47.2041L14.1988 41.9071L18.4179 42.5401C20.7379 42.8881 27.3248 43.2461 33.0548 43.3361C42.6338 43.4871 43.4989 43.6611 43.7929 45.5001C44.1869 47.9661 45.6389 51.9681 48.5099 58.5001C50.8989 63.9371 52.3408 79.3231 51.2918 88.1851C50.2248 97.1941 48.1218 93.6411 46.9928 80.9221C46.5738 76.2041 45.7799 71.4791 45.2279 70.4221C44.6759 69.3651 42.9838 65.8911 41.4688 62.7021C34.0188 47.0291 27.0439 43.2391 22.0389 52.1441C20.1109 55.5751 19.8519 57.2641 20.1739 64.3141C20.5419 72.3651 20.8499 73.3141 26.7179 84.5001C29.4449 89.7001 30.2778 92.0551 29.6208 92.7121C28.6718 93.6621 24.0368 88.5001 21.3498 83.5001C20.1668 81.3001 18.2299 77.7541 17.0439 75.6201C15.8579 73.4861 14.1999 69.7131 13.3589 67.2371Z" fill="#858E9B"/>
</svg>
