<svg width="53" height="87" viewBox="0 0 53 87" fill="none" xmlns="http://www.w3.org/2000/svg">
<path fill-rule="evenodd" clip-rule="evenodd" d="M43.6429 5.48186C41.1839 3.12586 37.8609 1.02186 36.0179 0.653864C30.7279 -0.404136 29.3169 -0.138136 26.1619 2.51686C23.0159 5.16386 22.6619 5.13886 15.2999 1.73286C10.3729 -0.546137 2.69888 5.94486 0.910881 13.9019C-0.22812 18.9689 1.2339 26.7859 4.2409 31.7199C5.5089 33.7989 7.37585 38.1999 8.38885 41.4999C9.40285 44.7999 10.5899 48.3999 11.0279 49.4999C11.4659 50.5999 12.8759 54.8749 14.1619 58.9999C17.9699 71.2139 29.7858 86.9999 35.1208 86.9999C36.8008 86.9999 38.3069 86.3629 38.6329 85.5139C39.1369 84.1999 39.4478 84.1999 41.3238 85.5139C42.4908 86.3309 45.5949 86.9999 48.2229 86.9999C50.8509 86.9999 50.8933 87.0157 52 85.5139C52.8155 84.4072 50.7499 76.2299 50.7499 76.2299C50.7499 76.2299 45.0509 65.5089 43.8859 58.9999C41.2289 44.1419 41.4339 41.6269 46.6409 25.2149C47.3879 22.8579 47.9999 18.3939 47.9999 15.2939C47.9999 9.94586 47.7769 9.44286 43.6429 5.48186ZM26.7689 8.68286C23.1519 11.1669 22.9329 11.1959 19.6179 9.62286C12.6649 6.32386 9.773 8.28986 7 15.2939C5.501 19.0789 9.55285 29.9999 9.55285 29.9999C9.55285 29.9999 12.0589 34.6249 12.4889 35.9999C12.9179 37.3749 13.7709 38.8309 14.3849 39.2349C14.9979 39.6389 20.3369 39.9759 26.2499 39.9849C36.0129 39.9989 36.9999 38.1669 36.9999 38.1669L37.7489 35.5839C37.7489 35.5839 40.6539 27.1009 42.2869 18.6359C42.2869 18.6359 43.1259 15.1762 42.2869 13C41.5827 11.1738 39.7239 9.38586 39.7239 9.38586C35.2539 5.28986 31.9689 5.11086 26.7689 8.68286ZM19.6749 58.7409C18.6719 55.3089 17.2909 50.9249 16.6069 48.9999L15.3639 45.4999H26.1049H36.8448L37.2848 50.4999C38.3878 63.0589 42.3359 75.4789 46.5709 79.7139C48.1439 81.2869 48.4619 82.9999 47.1799 82.9999C44.9999 82.9999 39.7279 76.6699 36.5449 70.2289C34.5949 66.2839 32.9999 62.5169 32.9999 62.5169C32.9999 62.5169 28.5269 52.9999 27.3899 52.9999C25.7549 52.9999 26.9649 61.7639 26.9649 61.7639C26.9649 61.7639 32.0819 73.4609 31.8089 75.7619C31.5189 78.2159 31.2419 78.0319 27.2499 72.7299C24.9129 69.6259 22.9999 66.0429 22.9999 66.0429L22.2499 64.9909C22.2499 64.9909 20.6789 62.1739 19.6749 58.7409Z" fill="#858E9B"/>
</svg>
