<svg width="35" height="115" viewBox="0 0 35 115" fill="none" xmlns="http://www.w3.org/2000/svg">
<path fill-rule="evenodd" clip-rule="evenodd" d="M10.2917 2.85098C13.2617 2.49798 17.4907 1.72098 19.6907 1.12498C24.4537 -0.166017 25.9447 -0.180016 28.9847 1.04098C32.9087 2.61498 34.1907 7.65398 34.1907 21.494C34.1907 32.738 33.9407 34.556 31.8117 38.776C29.5887 43.184 29.3887 44.998 28.7457 66.493C28.0137 90.968 26.5437 101.724 22.9557 108.855C19.3687 115.984 13.9927 116.367 11.6857 109.657C10.9067 107.389 10.1307 97.131 9.68768 83.222C9.28968 70.721 8.12567 59.45 8.12567 59.45C8.12567 59.45 6.99969 55.276 6.64569 51.45C6.29269 47.623 4.81366 40.668 3.36066 35.993C1.32066 29.434 0.714674 25.398 0.703674 18.32C0.686674 6.38198 2.28469 3.80298 10.2917 2.85098ZM27.5987 7.13898C27.8327 7.88398 28.2987 13.615 28.6337 19.874C29.1827 30.154 29.0377 31.679 27.1257 35.628C24.9577 40.105 24.5037 40.354 16.5577 41.423C11.9467 42.044 10.7637 41.2 9.63367 36.487C9.23767 34.84 8.58669 33.043 8.18469 32.493C6.71569 30.482 5.0097 18.023 5.6687 14.121C6.5207 9.08298 7.39667 8.40798 14.1907 7.55698C17.2157 7.17798 21.3747 6.62398 23.4317 6.32598C26.0757 5.94398 27.2987 6.18198 27.5987 7.13898ZM21.5397 91.909C23.2167 79.47 24.4017 53.199 23.4917 48.652C22.9937 46.165 22.5967 45.894 20.3067 46.473C18.8677 46.838 16.2957 47.37 14.5917 47.656C11.5177 48.172 11.5007 48.21 12.4247 52.335C13.3167 56.321 14.3987 70.035 15.8087 95.243C16.1697 101.706 16.7456 106.993 17.0876 106.993C18.7546 106.993 20.1367 102.311 21.5397 91.909Z" fill="#858E9B"/>
</svg>
