<svg width="43" height="129" viewBox="0 0 43 129" fill="none" xmlns="http://www.w3.org/2000/svg">
<path fill-rule="evenodd" clip-rule="evenodd" d="M11.1056 6.42014C13.0776 4.72914 15.8037 2.59214 17.1637 1.67014C20.4347 -0.54886 30.7156 -0.55886 34.2786 1.65314C35.7016 2.53614 38.1766 5.33714 39.7786 7.87614C42.5996 12.3491 42.6896 12.8841 42.6566 24.9931C42.6236 36.8571 39.9066 41.7231 39.9066 41.7231C39.9066 41.7231 37.1816 47.2761 37.1596 50.7231C37.1306 55.2251 36.1526 63.5091 34.1776 75.9931C33.6996 79.0181 32.6536 85.9931 31.8546 91.4931C30.1816 103.006 29.0047 106.784 22.0337 122.993C19.8517 128.068 19.4246 128.499 16.2746 128.811C10.3526 129.398 10.1906 128.813 10.1906 106.805C10.1906 94.8071 9.14162 84.9021 9.14162 84.9021C9.14162 84.9021 8.00962 74.5021 7.89162 62.7181C7.75962 49.3771 7.29065 41.8121 6.51565 40.4931C3.80465 35.8771 2.03267 29.1401 1.48367 21.3581C0.934665 13.5761 0.898643 13.0671 0.898643 13.0671C0.898643 13.0671 2.38862 12.2631 4.20962 11.2801C6.03062 10.2971 9.13461 8.11014 11.1056 6.42014ZM33.2166 8.90014C35.4026 11.1971 37.1906 15.1011 37.1906 15.1011C37.1906 15.1011 37.9729 17.5472 38.2796 19.1591C39.7498 26.8865 37.7896 33.0731 34.7696 38.9931C32.5836 43.2801 32.2197 43.5271 27.0827 44.2151C19.9217 45.1751 13.1776 44.2031 12.5166 42.1181C12.2326 41.2241 11.1116 38.1801 10.0246 35.3541C8.93762 32.5271 7.69561 27.8021 7.26461 24.8541C6.83361 21.9051 6.30266 18.8911 6.08566 18.1551C5.86866 17.4191 7.05963 16.0641 8.73263 15.1421C10.4066 14.2211 13.8776 11.7451 16.4466 9.64014C19.5356 7.10814 22.4926 5.62814 25.1796 5.26814C28.9456 4.76214 29.5336 5.02814 33.2166 8.90014ZM28.6756 76.4931C29.5736 71.5431 30.5617 63.3311 30.8697 58.2431C31.4057 49.3881 29.3686 48.9931 29.3686 48.9931L26.6217 50.1041C26.6217 50.1041 23.7466 51.0571 20.1416 50.7961L14.3487 50.3771L13.6717 59.4351C13.2987 64.4171 13.2927 71.6431 13.6587 75.4931C14.0237 79.3431 14.5366 91.6801 14.7976 102.908C15.1976 120.147 15.4756 123.025 16.5816 121.408C17.3026 120.355 18.1956 118.244 18.5676 116.716C18.9386 115.189 20.3556 111.506 21.7166 108.53C23.0776 105.555 24.1906 101.757 24.1906 101.757L25.0857 99.4431C25.0857 99.4431 26.2196 95.5681 26.5106 91.9931C26.8026 88.4181 27.7766 81.4431 28.6756 76.4931Z" fill="#858E9B"/>
</svg>
