<svg width="46" height="115" viewBox="0 0 46 115" fill="none" xmlns="http://www.w3.org/2000/svg">
<path fill-rule="evenodd" clip-rule="evenodd" d="M14.6847 4.60922C16.3307 3.44522 19.2557 1.93722 21.1847 1.25822C23.1127 0.579218 25.3657 0.0532174 26.1907 0.0902174C29.7077 0.246217 34.2177 3.25522 39.5217 8.98422C44.5707 14.4372 45.1907 15.5742 45.1907 19.3722C45.1907 21.7182 44.5687 25.6292 43.8077 28.0652C40.9997 37.0582 40.3267 40.7782 39.2087 53.4932C38.5797 60.6432 37.6767 69.4182 37.2027 72.9932C36.7287 76.5682 35.8217 83.5432 35.1877 88.4932C33.7787 99.5022 32.0647 104.863 28.1197 110.597C25.6047 114.252 24.5547 114.992 21.8927 114.985C19.3967 114.979 18.4147 114.384 17.4407 112.286C15.9497 109.076 17.1907 97.4932 17.1907 97.4932C17.1907 97.4932 15.6237 73.0272 13.6507 61.4932C11.3307 47.9242 10.3717 44.3052 7.10565 36.7722C2.35465 25.8172 0.190674 19.7552 0.190674 17.4032C0.190674 14.7642 3.84465 10.7342 8.30365 8.45522C10.1666 7.50322 13.0377 5.77222 14.6847 4.60922ZM28.0016 6.82322C30.8946 7.66322 39.1017 15.7902 39.7767 18.4832C40.0537 19.5892 39.5847 22.4622 38.7357 24.8692C37.8857 27.2752 37.1907 30.2432 37.1907 31.4642C37.1907 32.6842 36.4027 34.3512 35.4407 35.1662C32.9107 37.3112 23.6467 39.9932 18.7687 39.9932C18.5168 39.9932 18.2805 39.9955 18.0581 39.9976C16.9839 40.0079 16.2317 40.0151 15.5927 39.7497C14.0997 39.1295 13.225 37.0211 10.3065 29.9865C10.0473 29.3617 9.772 28.6981 9.4787 27.9932C8.6777 26.0682 7.61069 23.7122 7.10669 22.7572C4.90469 18.5832 6.06369 16.6172 13.5597 11.8032C21.3767 6.78422 24.3406 5.76222 28.0016 6.82322ZM30.2657 81.9932C31.3857 76.8892 33.1277 61.2492 33.8527 49.7912L34.3397 42.0902L31.0157 43.1512C29.1867 43.7352 25.1037 44.6752 21.9407 45.2412C17.4467 46.0442 16.1907 46.6632 16.1907 48.0722C16.1907 49.0642 17.0737 50.4212 17.0737 50.4212C17.0737 50.4212 18.2736 53.5602 18.6606 56.7302C19.0476 59.9002 20.9487 68.4932 20.9487 68.4932C20.9487 68.4932 23.6997 94.0542 22.1077 100.775C20.7597 106.464 21.7627 109.418 24.0907 106.613C26.1897 104.084 29.1887 94.6932 29.2347 90.5072C29.2587 88.2992 29.7217 84.4682 30.2657 81.9932Z" fill="#858E9B"/>
</svg>
