<svg width="58" height="100" viewBox="0 0 58 100" fill="none" xmlns="http://www.w3.org/2000/svg">
<path fill-rule="evenodd" clip-rule="evenodd" d="M32.1908 3.08628C32.1908 3.08628 33.3368 1.79228 34.7378 1.15428C38.1938 -0.420716 41.7578 -0.170716 47.6338 2.05928C55.3568 4.99028 57.0338 15.5473 57.0338 15.5473C57.0338 15.5473 57.2658 23.3073 53.9588 28.2883C49.3778 35.1883 47.3789 42.8603 48.9969 47.3333C50.4429 51.3313 52.3343 60.8507 49.1908 68.4933C48.8375 69.3523 48.1908 70.6513 48.1908 70.6513C48.1908 70.6513 45.2928 79.0423 44.2428 79.9933C43.9388 80.2683 42.5658 82.7103 41.1908 85.4203C39.8158 88.1303 36.8558 92.2923 34.6118 94.6703C31.2558 98.2273 29.8898 98.9933 26.8978 98.9933C19.6408 98.9933 19.6648 93.9973 26.9958 79.0453C31.7848 69.2763 32.8748 62.8003 30.9158 55.7433C30.0258 52.5363 27.6068 52.1063 26.6908 54.9933C26.3418 56.0933 25.7098 56.9933 25.2858 56.9933C24.3208 56.9933 19.7268 66.2953 17.8168 72.1173C17.0278 74.5243 16.0769 79.9693 15.7029 84.2183C14.8019 94.4803 12.8193 101.097 6.48984 98.7963C3.71543 97.7878 1.87581 96.7903 1.17581 93.4203C0.475812 90.0503 0.160825 82.6053 0.401825 75.1163C0.783825 63.1903 1.0148 62.0013 4.5878 53.5833C8.6998 43.8953 8.77184 42.4553 5.67984 31.4933C4.74884 28.1933 3.50685 22.6653 2.91885 19.2103C1.94985 13.5093 2.03684 12.6743 3.86484 10.2103C4.97284 8.71528 7.68783 6.21328 9.89883 4.64928C14.9408 1.08228 22.8118 0.440285 26.0118 3.33328C27.9648 5.09928 32.1908 3.08628 32.1908 3.08628ZM44.6758 7.15728C50.2198 9.16828 51.1907 11.9932 51.6907 15.9932C52.3108 20.9546 50.7978 22.5833 47.8738 27.5193L42.5558 36.4933L36.6238 37.1343C33.3608 37.4873 27.1988 37.8253 22.9308 37.8843C16.3308 37.9773 14.9158 37.6953 13.4608 35.9953C11.6568 33.8893 9.37783 25.5493 8.53983 17.9933C8.09383 13.9763 8.36283 13.1863 11.0398 10.6293C15.1128 6.73828 21.8668 5.87329 24.5988 8.89128C26.9158 11.4513 30.1178 11.5813 33.3128 9.24328C38.5358 5.42228 39.4358 5.25728 44.6758 7.15728ZM43.8318 67.2303C45.3268 62.8263 45.3138 61.6563 43.6138 47.1973L42.9918 41.9003L38.7728 42.5333C36.4528 42.8813 29.8658 43.2393 24.1358 43.3293C14.5568 43.4803 13.6918 43.6543 13.3978 45.4933C13.0038 47.9593 11.5518 51.9613 8.68082 58.4933C6.29182 63.9303 4.84983 79.3163 5.89883 88.1783C6.96583 97.1873 9.06885 93.6343 10.1978 80.9153C10.6168 76.1973 11.4108 71.4723 11.9628 70.4153C12.5148 69.3583 14.2068 65.8843 15.7218 62.6953C23.1718 47.0223 30.1468 43.2323 35.1518 52.1373C37.0798 55.5683 37.3388 57.2573 37.0168 64.3073C36.6488 72.3583 36.3408 73.3073 30.4728 84.4933C27.7458 89.6933 26.9129 92.0483 27.5699 92.7053C28.5189 93.6553 33.1538 88.4933 35.8408 83.4933C37.0238 81.2933 38.9608 77.7473 40.1468 75.6133C41.3328 73.4793 42.9908 69.7063 43.8318 67.2303Z" fill="#858E9B"/>
</svg>
