<svg width="100" height="100" viewBox="0 0 100 100" fill="none" xmlns="http://www.w3.org/2000/svg">
<path d="M50.0002 0.833496C22.811 0.833496 0.833496 22.811 0.833496 50.0002C0.833496 77.1893 22.811 99.1668 50.0002 99.1668C77.1893 99.1668 99.1668 77.1893 99.1668 50.0002C99.1668 22.811 77.1893 0.833496 50.0002 0.833496ZM71.1418 71.1418C70.687 71.5976 70.1467 71.9592 69.5519 72.206C68.9571 72.4527 68.3195 72.5797 67.6756 72.5797C67.0317 72.5797 66.3941 72.4527 65.7993 72.206C65.2045 71.9592 64.6642 71.5976 64.2093 71.1418L50.0002 56.9327L35.791 71.1418C34.8717 72.0611 33.6248 72.5776 32.3247 72.5776C31.0247 72.5776 29.7778 72.0611 28.8585 71.1418C27.9392 70.2225 27.4227 68.9757 27.4227 67.6756C27.4227 67.0318 27.5495 66.3944 27.7959 65.7997C28.0422 65.2049 28.4033 64.6645 28.8585 64.2093L43.0677 50.0002L28.8585 35.791C27.9392 34.8717 27.4227 33.6248 27.4227 32.3247C27.4227 31.0247 27.9392 29.7778 28.8585 28.8585C29.7778 27.9392 31.0247 27.4227 32.3247 27.4227C33.6248 27.4227 34.8717 27.9392 35.791 28.8585L50.0002 43.0677L64.2093 28.8585C64.6645 28.4033 65.2049 28.0422 65.7997 27.7959C66.3944 27.5495 67.0318 27.4227 67.6756 27.4227C68.3193 27.4227 68.9568 27.5495 69.5515 27.7959C70.1462 28.0422 70.6866 28.4033 71.1418 28.8585C71.597 29.3137 71.9581 29.8541 72.2045 30.4488C72.4508 31.0436 72.5776 31.681 72.5776 32.3247C72.5776 32.9685 72.4508 33.6059 72.2045 34.2007C71.9581 34.7954 71.597 35.3358 71.1418 35.791L56.9327 50.0002L71.1418 64.2093C73.0102 66.0777 73.0102 69.2243 71.1418 71.1418Z" fill="#E75C60"/>
</svg>
