<svg width="167" height="166" viewBox="0 0 167 166" fill="none" xmlns="http://www.w3.org/2000/svg">
<path d="M132 159V166H35V159H132ZM160 131V35C160 19.536 147.464 7 132 7H35C19.536 7 7 19.536 7 35V131C7 146.464 19.536 159 35 159V166C15.67 166 0 150.33 0 131V35C0 15.67 15.67 0 35 0H132C151.33 0 167 15.67 167 35V131C167 150.33 151.33 166 132 166V159C147.464 159 160 146.464 160 131Z" fill="#858E9B"/>
<path d="M48 7H55V159H48V7Z" fill="#858E9B"/>
<path d="M112 7H119V159H112V7Z" fill="#858E9B"/>
<path d="M55 48H112V55H55V48Z" fill="#858E9B"/>
<path d="M55 111H112V118H55V111Z" fill="#858E9B"/>
</svg>
